<svg enable-background="new 0 0 512 512" viewBox="0 0 512 512" xmlns="http://www.w3.org/2000/svg"><g fill="#666"><path d="m447.7 421.9-166-165.9 166-165.9c4.2-4.2 4.2-10.9 0-15.1-48-48-113.1-75-181-75-141.4 0-256 114.6-256 256s114.6 256 256 256c67.9.2 133.1-26.8 181-75 4.2-4.1 4.2-10.9 0-15.1zm-181 68.8c-129.6 0-234.7-105.1-234.7-234.7s105-234.7 234.6-234.7c58.6-.2 115.1 21.7 158.2 61.4l-165.7 165.8c-4.2 4.2-4.2 10.9 0 15.1l165.8 165.8c-43.2 39.4-99.7 61.3-158.2 61.3z"/><path d="m245.3 74.7c-23.6 0-42.7 19.1-42.7 42.7s19.1 42.7 42.7 42.7 42.7-19.1 42.7-42.7-19.1-42.7-42.7-42.7zm0 64c-11.8 0-21.3-9.6-21.3-21.3s9.5-21.4 21.3-21.4 21.3 9.6 21.3 21.3c.1 11.8-9.5 21.4-21.3 21.4z"/><path d="m469.3 224c-17.7 0-32 14.3-32 32s14.3 32 32 32 32-14.3 32-32-14.3-32-32-32zm0 42.7c-5.9 0-10.7-4.8-10.7-10.7s4.8-10.7 10.7-10.7 10.7 4.8 10.7 10.7-4.8 10.7-10.7 10.7z"/><path d="m384 224c-17.7 0-32 14.3-32 32s14.3 32 32 32 32-14.3 32-32-14.3-32-32-32zm0 42.7c-5.9 0-10.7-4.8-10.7-10.7s4.8-10.7 10.7-10.7 10.7 4.8 10.7 10.7-4.8 10.7-10.7 10.7z"/><circle cx="244.4" cy="117.4" r="25.2"/><circle cx="384" cy="256" r="25.2"/><circle cx="469.3" cy="256" r="25.2"/></g></svg>