<?xml version="1.0" encoding="utf-8"?>
<!-- Generator: Adobe Illustrator 21.0.0, SVG Export Plug-In . SVG Version: 6.00 Build 0)  -->
<svg version="1.1" id="Capa_1" xmlns="http://www.w3.org/2000/svg" xmlns:xlink="http://www.w3.org/1999/xlink" x="0px" y="0px"
	 viewBox="0 0 512 512" style="enable-background:new 0 0 512 512;" xml:space="preserve">
<style type="text/css">
	.st0{fill:#FF0000;}
</style>
<path class="st0" d="M266.7,512c-141.4,0-256-114.5-256.1-255.9S125.2,0,266.6,0c67.9,0,133.1,27,181.1,75c4.2,4.2,4.2,10.9,0,15.1
	L281.8,256l165.9,165.9c4.2,4.2,4.2,10.9,0,15.1C399.8,485.2,334.6,512.2,266.7,512L266.7,512z M266.7,21.3
	C137.1,21.3,32,126.3,32,255.9s105,234.7,234.6,234.7c58.6,0,115-21.9,158.3-61.4L259.2,263.5c-4.2-4.2-4.2-10.9,0-15.1L424.9,82.7
	C381.8,43.1,325.3,21.1,266.7,21.3L266.7,21.3z"/>
<path class="st0" d="M440.1,82.6C440.1,82.5,440.1,82.5,440.1,82.6c-95.9-95.9-251.2-95.8-347,0s-95.8,251.2,0.1,347
	s251.2,95.8,347-0.1L266.7,256L440.1,82.6z M245.4,160c-23.6,0-42.7-19.1-42.7-42.7s19.1-42.7,42.7-42.7s42.7,19.1,42.7,42.7
	C288,140.9,268.9,160,245.4,160z"/>
<path class="st0" d="M469.4,288c-17.7,0-32-14.3-32-32s14.3-32,32-32s32,14.3,32,32S487,288,469.4,288z M469.4,245.3
	c-5.9,0-10.7,4.8-10.7,10.7s4.8,10.7,10.7,10.7S480,261.9,480,256S475.3,245.3,469.4,245.3z"/>
<path class="st0" d="M384,288c-17.7,0-32-14.3-32-32s14.3-32,32-32s32,14.3,32,32S401.7,288,384,288z M384,245.3
	c-5.9,0-10.7,4.8-10.7,10.7s4.8,10.7,10.7,10.7s10.7-4.8,10.7-10.7C394.7,250.1,389.9,245.3,384,245.3z"/>
<circle class="st0" cx="382.8" cy="257.3" r="22.6"/>
<circle class="st0" cx="473.4" cy="256" r="22.6"/>
</svg>
