<?xml version="1.0" encoding="utf-8"?>
<svg viewBox="0 0 52 52" xmlns="http://www.w3.org/2000/svg" xmlns:bx="https://boxy-svg.com">
  <g id="surface1" transform="matrix(0.888716, 0, 0, 0.900123, 11.935616, 9.555884)" style="">
    <path style=" stroke:none;fill-rule:nonzero;fill:#f00;fill-opacity:1;" d="M 30.5625 15.117188 L 30.5625 11.207031 L 32 11.207031 L 32 7.289062 L 16 0.0078125 L 0 7.289062 L 0 11.207031 L 1.4375 11.207031 L 1.4375 15.117188 L 3.65625 15.117188 L 3.65625 26.367188 L 0 26.367188 L 0 31.992188 L 32 31.992188 L 32 26.367188 L 28.34375 26.367188 L 28.34375 15.117188 Z M 1.875 8.492188 L 16 2.070312 L 30.125 8.492188 L 30.125 9.332031 L 1.875 9.332031 Z M 3.3125 11.207031 L 28.6875 11.207031 L 28.6875 13.242188 L 3.3125 13.242188 Z M 18.949219 26.367188 L 18.949219 15.117188 L 22.445312 15.117188 L 22.445312 26.367188 Z M 13.050781 15.117188 L 13.050781 26.367188 L 9.554688 26.367188 L 9.554688 15.117188 Z M 14.925781 15.117188 L 17.074219 15.117188 L 17.074219 26.367188 L 14.925781 26.367188 Z M 5.53125 15.117188 L 7.679688 15.117188 L 7.679688 26.367188 L 5.53125 26.367188 Z M 30.125 30.117188 L 1.875 30.117188 L 1.875 28.242188 L 30.125 28.242188 Z M 26.46875 26.367188 L 24.320312 26.367188 L 24.320312 15.117188 L 26.46875 15.117188 Z M 26.46875 26.367188 "/>
    <path style=" stroke:none;fill-rule:nonzero;fill:#f00;fill-opacity:1;" d="M 16 3.394531 C 14.5625 3.394531 13.394531 4.5625 13.394531 6 C 13.394531 7.4375 14.5625 8.605469 16 8.605469 C 17.4375 8.605469 18.605469 7.4375 18.605469 6 C 18.605469 4.5625 17.4375 3.394531 16 3.394531 Z M 16 6.738281 C 15.59375 6.738281 15.269531 6.40625 15.269531 6.007812 C 15.269531 5.605469 15.601562 5.273438 16 5.273438 C 16.398438 5.273438 16.730469 5.605469 16.730469 6.007812 C 16.730469 6.40625 16.40625 6.738281 16 6.738281 Z M 16 6.738281 "/>
  </g>
  <path d="M 482 500 m -20.675 0 a 20.675 20.675 0 1 0 41.35 0 a 20.675 20.675 0 1 0 -41.35 0 Z M 482 500 m -19.021 0 a 19.021 19.021 0 0 1 38.042 0 a 19.021 19.021 0 0 1 -38.042 0 Z" style="fill:#f00" transform="matrix(-0.602833, 0.797867, -0.797867, -0.602833, 715.499207, -57.155457)" bx:shape="ring 482 500 19.021 19.021 20.675 20.675 1@2d77e2b1"/>
</svg>