<svg enable-background="new 0 0 511 511" viewBox="0 0 511 511" xmlns="http://www.w3.org/2000/svg"><g fill="#666"><path d="m280.5 71.5c-15.9-2.5-30.9 8.4-33.4 24.4-1.2 7.7.7 15.4 5.3 21.7s11.4 10.4 19.1 11.6c1.5.2 3 .4 4.5.4 14.1 0 26.6-10.3 28.9-24.7 2.5-15.9-8.4-30.9-24.4-33.4zm4.7 30.3c-.8 5-5.6 8.5-10.6 7.7-2.5-.4-4.6-1.7-6.1-3.7s-2.1-4.5-1.7-6.9c.7-4.6 4.7-7.9 9.2-7.9.5 0 .9 0 1.4.1 5.1.9 8.6 5.7 7.8 10.7z"/><path d="m312.8 171.6c-1.2 7.7.6 15.4 5.2 21.7s11.4 10.5 19.1 11.7c1.5.2 3 .4 4.5.4 14.1 0 26.6-10.3 28.9-24.7 1.2-7.7-.7-15.4-5.3-21.8-4.6-6.3-11.4-10.5-19.1-11.7-15.8-2.4-30.8 8.5-33.3 24.4zm36.4-1c1.5 2 2.1 4.5 1.7 6.9-.8 5.1-5.6 8.5-10.7 7.7-2.5-.4-4.6-1.7-6.1-3.7s-2-4.4-1.7-6.9c.7-4.6 4.7-7.9 9.2-7.9.5 0 1 0 1.4.1 2.6.5 4.8 1.8 6.2 3.8z"/><path d="m381.8 277.1c4.6 6.3 11.4 10.5 19.1 11.7 1.5.2 3.1.4 4.6.4 6.1 0 12.1-1.9 17.2-5.6 6.3-4.6 10.5-11.4 11.7-19.1s-.7-15.4-5.3-21.7-11.4-10.4-19.1-11.7c-15.9-2.5-30.9 8.4-33.4 24.3-1.2 7.6.6 15.4 5.2 21.7zm14.5-18.7c.7-4.6 4.7-7.8 9.2-7.8.5 0 1 0 1.4.1 2.5.4 4.6 1.7 6.1 3.7s2.1 4.5 1.7 6.9-1.7 4.6-3.7 6.1-4.5 2.1-6.9 1.7c-2.5-.4-4.6-1.7-6.1-3.7-1.5-2.1-2.1-4.5-1.7-7z"/><path d="m501.1 63.2c-8.1-11.1-19.9-18.3-33.4-20.4l-56-8.8c-5.4-.8-10.5 2.9-11.4 8.3s2.9 10.5 8.3 11.4l56 8.8c8.2 1.3 15.4 5.7 20.4 12.5 4.9 6.8 6.9 15 5.7 23.2l-32.3 205.8c-2.4 15.4-15.7 26.4-30.8 26.4-1.6 0-3.2-.1-4.8-.4l-112-17.5v-69.8c0-28.2-23-51.1-51.2-51.1h-57.8l21.2-135.3c1.3-8.2 5.7-15.4 12.5-20.4 6.8-4.9 15-6.9 23.2-5.6l71.6 11.3c5.4.9 10.5-2.9 11.4-8.3s-2.9-10.5-8.3-11.4l-71.6-11.3c-13.5-2.1-26.9 1.1-38 9.2s-18.3 19.9-20.5 33.4l-21.7 138.2h-130.4c-28.2 0-51.2 23-51.2 51.2v208.3c0 28.2 23 51.1 51.2 51.1h208.5c28.2 0 51.2-22.9 51.2-51.2v-118.2l108.9 17.1c2.7.4 5.3.6 7.9.6 24.8 0 46.6-18.1 50.5-43.2l32.3-205.8c2-13.5-1.3-27-9.4-38.1zm-210.3 387.7c0 17.2-14 31.2-31.2 31.2h-208.4c-17.2 0-31.2-14-31.2-31.2v-208.3c0-17.2 14-31.2 31.2-31.2h139 69.4c17.2 0 31.2 14 31.2 31.2z"/><path d="m79.1 248.7c-16.1 0-29.2 13.1-29.2 29.2s13.1 29.2 29.2 29.2 29.3-13.1 29.3-29.2-13.2-29.2-29.3-29.2zm0 38.5c-5.1 0-9.3-4.2-9.3-9.3s4.2-9.3 9.3-9.3 9.3 4.2 9.3 9.3c0 5.2-4.2 9.3-9.3 9.3z"/><path d="m155.7 313.4c-16.1 0-29.2 13.1-29.2 29.2s13.1 29.3 29.2 29.3 29.2-13.1 29.2-29.3c.1-16.1-13-29.2-29.2-29.2zm0 38.5c-5.1 0-9.3-4.2-9.3-9.3s4.2-9.3 9.3-9.3 9.3 4.2 9.3 9.3-4.1 9.3-9.3 9.3z"/><path d="m231.7 249c-16.1 0-29.2 13.1-29.2 29.2s13.1 29.2 29.2 29.2 29.3-13.1 29.3-29.2c-.1-16.1-13.2-29.2-29.3-29.2zm0 38.5c-5.1 0-9.3-4.2-9.3-9.3s4.2-9.3 9.3-9.3 9.3 4.2 9.3 9.3-4.2 9.3-9.3 9.3z"/><path d="m79.1 386c-16.1 0-29.2 13.1-29.2 29.2s13.1 29.2 29.2 29.2 29.3-13.1 29.3-29.2-13.2-29.2-29.3-29.2zm0 38.5c-5.1 0-9.3-4.2-9.3-9.3s4.2-9.3 9.3-9.3 9.3 4.2 9.3 9.3-4.2 9.3-9.3 9.3z"/><path d="m231.7 386.3c-16.1 0-29.2 13.1-29.2 29.2s13.1 29.2 29.2 29.2 29.3-13.1 29.3-29.2c-.1-16.1-13.2-29.2-29.3-29.2zm0 38.5c-5.1 0-9.3-4.2-9.3-9.3s4.2-9.3 9.3-9.3 9.3 4.2 9.3 9.3-4.2 9.3-9.3 9.3z"/><path d="m369.6 47.6h.2c.6.1 1.1.1 1.6.1 4.8 0 9-3.5 9.8-8.3.9-5.4-2.8-10.6-8.2-11.5h-.2c-5.4-.9-10.6 2.8-11.5 8.2-.8 5.5 2.9 10.6 8.3 11.5z"/></g></svg>