<?xml version="1.0" encoding="utf-8"?>
<!-- Generator: Adobe Illustrator 21.0.0, SVG Export Plug-In . SVG Version: 6.00 Build 0)  -->
<svg version="1.1" id="Layer_1" xmlns="http://www.w3.org/2000/svg" xmlns:xlink="http://www.w3.org/1999/xlink" x="0px" y="0px"
	 viewBox="0 0 511 511" style="enable-background:new 0 0 511 511;" xml:space="preserve">
<style type="text/css">
	.st0{fill:#FF0000;}
</style>
<path class="st0" d="M466.2,52.7L260.3,20.5c-22.4-3.5-43.6,11.9-47.1,34.3l-23,146.7h69.4c22.7,0,41.2,18.5,41.2,41.2V321
	l120.4,18.9c22.4,3.5,43.5-12,47-34.3l32.3-205.8C504,77.3,488.6,56.2,466.2,52.7z M304.9,104.9c-2.3,14.4-14.7,24.7-28.9,24.7
	c-1.5,0-3-0.1-4.5-0.4c-7.7-1.2-14.5-5.3-19.1-11.6c-4.6-6.3-6.5-14-5.3-21.7c2.5-15.9,17.5-26.8,33.4-24.4l0,0
	C296.5,74,307.4,89,304.9,104.9z M341.7,204.7c-16,0-28.9-12.9-28.9-28.9s12.9-28.9,28.9-28.9s28.9,12.9,28.9,28.9
	S357.7,204.7,341.7,204.7z M405.5,285.3c-16.1,0-29.1-13.3-29.1-29.8s13-29.8,29.1-29.8s29.1,13.3,29.1,29.8
	S421.6,285.3,405.5,285.3z"/>
<path class="st0" d="M290.8,450.9V242.6c0-17.2-14-31.2-31.2-31.2h-69.4l0,0l0,0h-139c-17.2,0-31.2,14-31.2,31.2v208.3
	c0,17.2,14,31.2,31.2,31.2h208.5C276.8,482.1,290.8,468.1,290.8,450.9L290.8,450.9z M79.1,444.4c-16.1,0-29.2-13.1-29.2-29.2
	S63,386,79.1,386s29.2,13.1,29.2,29.2S95.2,444.4,79.1,444.4z M79.1,307.1c-16.1,0-29.2-13.1-29.2-29.2s13.1-29.2,29.2-29.2
	s29.2,13.1,29.2,29.2C108.3,294.1,95.2,307.1,79.1,307.1z M155.7,371.8c-16.1,0-29.2-13.1-29.2-29.2s13.1-29.2,29.2-29.2
	s29.2,13.1,29.2,29.2C184.9,358.7,171.9,371.8,155.7,371.8z M231.4,249.1c16.1,0,29.2,13.1,29.2,29.2s-13.1,29.2-29.2,29.2
	s-29.2-13.1-29.2-29.2C202.2,262.2,215.3,249.1,231.4,249.1z M231.7,444.7c-16.1,0-29.2-13.1-29.2-29.2s13.1-29.2,29.2-29.2
	s29.2,13.1,29.2,29.2S247.8,444.7,231.7,444.7z"/>
</svg>
