<?xml version="1.0" encoding="utf-8"?>
<!-- Generator: Adobe Illustrator 21.0.0, SVG Export Plug-In . SVG Version: 6.00 Build 0)  -->
<svg version="1.1" id="Layer_1" xmlns="http://www.w3.org/2000/svg" xmlns:xlink="http://www.w3.org/1999/xlink" x="0px" y="0px"
	 viewBox="0 0 553.9 543.9" style="enable-background:new 0 0 553.9 543.9;" xml:space="preserve">
<style type="text/css">
	.st0{fill:#FF0000;}
	.st1{fill:none;}
</style>
<g>
	<path class="st0" d="M233.8,466.7l3-3l39.1-57.2c0-3,3-3,6-3h78.3c3,0,6,0,6,3c12,18.1,27.1,39.1,39.1,57.2c0,0,0,3,3,3H233.8z"/>
	<path class="st0" d="M188.7,292.1l-3-144.5c0-15.1-9-27.1-24.1-30.1h-3H41.1c-3,3-6,3-9,3c-12,3-21.1,15.1-21.1,27.1v213.8v6v72.3
		c0,15.1,9,24.1,24.1,27.1h27.1h93.3c18.1,0,30.1-12,30.1-30.1L188.7,292.1z M44.1,403.5c-6,0-12-6-12-12s6-12,12-12s12,3,12,9
		S53.2,400.5,44.1,403.5C47.1,403.5,44.1,403.5,44.1,403.5z M161.6,228.8H38.1c-6,0-6,0-6-9v-9c0-6,0-6,6-6h123.5c6,0,6,0,6,6v12
		C164.6,225.8,164.6,228.8,161.6,228.8z M161.6,183.7H38.1c-3,0-6,0-6-3v-36.1c0-3,3-6,6-6h123.5c6,0,6,0,6,6v33.1
		C164.6,183.7,164.6,183.7,161.6,183.7z"/>
	<path class="st0" d="M510.9,75.3H131.5c-3,0-6,0-9,0c-12,0-18.1,9-21.1,21.1h412.5c6,0,6,0,6,6v198.7c0,9,0,9-9,9H215.8
		c-6,0-6,0-6,6v57.2c0,3,0,6,6,6h298.1h6c12-3,24.1-15.1,21.1-27.1V105.4C541,87.3,525.9,75.3,510.9,75.3z M321.2,358.3
		c-6,0-12-6-12-12s6-12,12-12s12,6,12,12C330.2,352.3,327.2,358.3,321.2,358.3z"/>
</g>
<path class="st1" d="M5,0h542v542H5V0z"/>
</svg>
