<svg enable-background="new 0 0 553.9 543.9" viewBox="0 0 553.9 543.9" xmlns="http://www.w3.org/2000/svg"><g fill="#f00"><path d="m367.5 236.2c-4.5 7.3-9.1 14.6-13.9 22.3-5-7-9.6-13.6-15-21.2 10.4 2.7 19.5 2 28.9-1.1z"/><path d="m553.8 71.1c-1.3-9.6-8.6-13.1-17-15.2-32-8-64-16-96-24.1-40.9-10.3-81.8-20.5-122.8-30.8-12.4-3.1-19.6.9-23.4 12.8-.3.9-.5 1.8-.8 2.7-12.8 50.1-25.8 100.2-38.7 150.4-1.4 5.5-1.3 5.7 3.9 8 18.5 8.4 35.3 19.3 50.6 32.6 1.3 1.1 2.6 2.1 4.6 3.8 0-2.7 0-4.3 0-5.9.4-20 8.1-36.1 25.6-46.5 20.4-12.1 41-23.8 61.4-35.8 3.2-1.9 5-1 6.7 1.9 3 5.1 6.2 10.1 9.3 15.1 9 14.6 18.1 29.1 26.8 43.8 10.6 17.8 11.5 36 1.2 54.3-4.8 8.6-11.5 15.3-21.6 16.9-13.6 2.2-25.4-1.8-35.4-11.4-1.2-1.2-2.5-2.3-3.8-3.4-.3.2-.5.3-.8.5 1.2 13.8 2.5 27.7 3.7 42.1-8.1-1.9-15.5-3.7-23.5-5.5.4 1.3.5 1.8.7 2.3 15.2 32.7 22.4 67 20.8 103-.2 3.4 1.2 4.9 4.5 5.7 20 4.9 40 10 60.1 15 13.2 3.3 22.6-2.3 25.9-15.4 25.5-101.7 51.1-203.5 76.5-305.2 1.1-3.9 2-8 1.5-11.7zm-225.5 13.1c-2.1 2.5-4.8 3-7.8 2.3-.6-.1-1.2-.3-2-.5-2.2 6.3-3.3 6.7-8.4 2.9.4-1.3.9-2.6 1.5-4.2-1-.4-1.9-.7-2.8-1.1-5.2-1.7-7.3-7.9-3.3-11.6s8.8-6.6 13.5-9.5c.7-.5 3.2.5 3.7 1.4 2.4 3.9 4.4 8 6.5 12.1 1.4 3 1.3 5.7-.9 8.2zm.2-31.9c-.2-2.9-2.4-3.4-4.4-3.5-1.8-.1-4.6 0-5.4 1.2-3.3 4.4-3.1 4.6-9.2 2 1.9-2.5 3.6-4.9 5.4-7.2 3.7-4.8 7.3-9.6 11.2-14.3 2.3-2.8 4.5-2.5 5.1.7 1.8 9 3.1 18 4.7 27.5-6.9-.7-7-.7-7.4-6.4zm129.7 302.2c-5.1 6.6-10.1 13.1-15.3 19.6-.6.8-1.9 1.6-2.8 1.6-.6 0-1.6-1.4-1.7-2.3-1.4-8.7-2.7-17.4-3.9-26.1-.1-.4.2-.7.4-1.5 3.9 0 6.8.6 6.2 5.4-.4 3.1 2.1 3.8 4.3 4 1.8.2 4.7.3 5.5-.8 3.4-4.3 3.2-4.5 8.8-2.4-.6.8-.9 1.7-1.5 2.5zm1-18.7c-2.3 1.7-4.8 3.2-7.1 4.9s-4.3 1.1-5.7-1.1c-2.1-3.5-4.3-7-5.9-10.7-2.6-6 .1-10.6 6.5-11.2 3.3-.3 5.2-1.7 5.6-5.4 2.6.6 4.8 1.2 7.3 1.8-.7 1.9-1.3 3.4-1.9 4.9 10.7 5.5 11 9.7 1.2 16.8z"/><path d="m180.4 183.2c-99.3 0-181.1 81.6-180.4 181.1.7 101.3 83.3 181 182.8 179.6 103-1.4 179-86.4 178.2-180.1-.1-100-80.8-180.7-180.6-180.6zm122.6 124.5c2.3 3.3 2.5 6.4 1 10-6.3 15.5-12.7 30.9-18.9 46.4-1.5 3.8-3.9 5.3-8 5.6-17.3 1.3-34.6 2.8-51.9 4.3-3.6.3-6.5-.7-8.6-3.6-12.9-17.3-25.8-34.6-38.4-52.2-1.4-2-1.8-5.7-1-8 6.4-16.8 13.2-33.5 19.9-50.3 1.3-3.2 3.4-4.7 6.9-4.7 8.2-.1 16.3-.4 24.5-.9 6.9-.4 13.8-1.3 20.7-1.9 20.2.8 15.2-1.2 26 14.2 9.5 13.7 18.5 27.6 27.8 41.1zm-94 77.1c-7.8 18.1-15.6 36.3-23.3 54.4-1.2 2.8-3.3 4.4-6.3 4.7-20.8 1.9-41.6 3.9-62.5 5.6-1.8.1-4.4-1.3-5.5-2.8-11.1-16.4-21.9-32.8-32.6-49.4-1.1-1.7-1.2-4.8-.5-6.6 7.5-18.8 15.2-37.5 23.2-56.1.9-2.1 3.8-4.5 6-4.8 18.4-2.9 36.9-5.4 56.6-8.1 1.2.8 3.6 1.6 4.9 3.3 13.1 17.5 26.1 35.1 39.1 52.6 1.8 2.2 2.1 4.6.9 7.2zm-62.6-170c1.7-4.4 2.9-9 4.2-13.6.9-3.3 2.7-5.1 6.4-5.3 9-.7 18.1-1.7 24.5-2.3 29.5 1 54.9 7.5 78.4 20.6 3.6 2 6.4 5.4 9.2 8.5.8.9 1 3 .6 4.4-.8 3.6-2.2 7-3.1 10.6-.9 3.7-3.2 5.1-6.8 5.2-8 .2-16 .6-24.1.9-10.4.4-20.8 1.1-31.2.9-5.2-.1-10.8-1.3-15.6-3.4-13.3-5.9-26.3-12.7-39.5-18.9-3.4-1.8-4.4-3.8-3-7.6zm-6.5-15.8c-1.2 4-2.3 7-2.9 10.1-1.4 7.2-5.4 12.2-11.5 16.5-13.1 9.3-25.8 19.1-38.4 29-6.3 5-13 8-21.1 8.5-7.2.4-14.4 1.7-21.7 2.6-.1-.4-.3-.8-.4-1.3 23.7-32.9 55.6-54.2 96-65.4zm-78 192.2c-11.1 2.2-22.1 4.7-33.2 7-1.9.4-3.6.8-4.3-1.8-3.9-14.7-7.8-29.4-11.7-44.2-.3-1.3-.4-2.6-.7-4.7.6-2.3 1.1-5.5 2.2-8.4 7.2-18.5 14.6-36.9 21.9-55.4 1.4-3.6 3.5-5.9 7.6-6.4 9.4-1.1 18.7-2.6 28.1-3.9 2.8-.4 4.6.8 5.5 3.4 5.2 15.2 10.4 30.3 15.4 45.6.5 1.7.2 4-.5 5.7-7.8 19.2-15.8 38.4-23.7 57.6-1.3 3-3.3 4.8-6.6 5.5zm14.2 106.1c7-3.8 22.7 6 24.2 15.8-8.6-5.6-16.3-10.6-24.2-15.8zm132.9 27.6c-17.1 1.9-34.2 4.1-51.3 5.9-8.8.9-16.9-1.5-24-7.1-9.3-7.4-18.6-14.7-28.1-21.8-3.1-2.3-4-4.7-2.6-8.5 3.5-9.2 6.7-18.6 9.9-27.9 1-2.9 2.7-4.9 5.8-5.2 20.8-2 41.6-3.9 62.5-5.8.1-.3.3-.5.4-.8 2.9 1.3 6.1 2.1 8.6 3.9 13.4 9.6 26.5 19.5 39.8 29.2 2.5 1.8 3.1 3.3 1.4 6.1-5.4 9-10.6 18.2-15.8 27.4-1.4 2.6-3.3 4.2-6.6 4.6zm103.9-55.7c-18 21-39.4 37.9-64.2 50.3-5.2 2.6-11.1 3.9-16.8 5.6-1.5.5-3.3.1-5.6.1.9-2 1.4-3.6 2.2-5.1 3.5-6.3 7-12.6 10.5-19 3.9-7 9.4-12.6 15.8-17.3 13.1-9.7 26.4-19.2 39.3-29.2 5.3-4.1 10.5-6.5 17.4-4.8 4 1 8.2 1.2 13.8 2-4.5 6.4-8 12.3-12.4 17.4zm21.3-33.6c-2.6 5.6-3.3 6.1-9.3 5.3-5.2-.7-10.4-1.6-15.6-2.2-2.8-.3-4.2-1.8-4.7-4.4-3.6-17.9-7.4-35.8-10.7-53.7-.6-3.4 0-7.5 1.2-10.7 5.9-15.6 12.3-31.1 18.5-46.6 2-5.1 3.3-5.7 8.8-4.9 4.6.6 9.1 1.2 13.7 1.6 3.7.3 5.9 2 7.3 5.5 5.1 12.9 8.3 26.1 7.1 40.5-.6 23.9-6.1 47.3-16.3 69.6z"/><path d="m126.3 158.5c-10-21.6-20-43.2-29.8-64.8-2.1-4.6-5.2-6.5-10-6.8-12.3-.9-24.6-1.9-36.9-2.9-11.6-1.1-23.1-2-35.4-3 .9 1.8 1.3 2.9 1.9 3.9 11.4 19.7 22.9 39.3 34.3 59 2 3.4 4.9 4.9 8.6 5.6 16.2 3.3 32.4 6.7 48.6 10 6.8 1.4 13.5 2.6 21 4-1.1-2.2-1.7-3.6-2.3-5zm-57.4-17.6c-1 1.7-3.3 2.6-5.6 4.2-3.1-2.1-6.3-3.5-8.4-5.9-1.1-1.3-1-4.7 0-6.4.7-1.2 3.9-2.1 5.4-1.6 2.7.9 5.3 2.8 7.4 4.8 1.1 1.1 1.9 3.8 1.2 4.9zm9.5-19.5c-.6 1.5-2.8 2.3-5 3.9-3.3-2.2-6.7-4-9.3-6.5-1-.9-.8-4.3.1-5.6 1.4-1.8 3.8-3.5 6.5-1.7 2.3 1.5 4.8 2.9 6.6 4.9 1 1.2 1.6 3.7 1.1 5zm9.7-19.4c-.5 1.6-3.2 2.4-5.4 3.9-3-1.8-5.9-3.1-8.2-5-2.1-1.9-3.3-4.9-.8-7.3 2.1-2.1 4.9-3.7 7.9-.9 1.5 1.3 3.5 2.1 4.6 3.6 1.2 1.6 2.4 4.2 1.9 5.7z"/><path d="m175.7 91.1c-5.4-17-10.6-34.1-15.9-51.2-1.7-5.3-3.4-10.7-5.3-16.4-.9.8-1.4 1.2-1.9 1.7-15.4 17.8-30.8 35.6-46.2 53.4-3.3 3.7-3 7.5-1.1 11.7 10.3 21.9 20.6 43.8 30.9 65.7.5 1 1.1 2 2 3.5 1.2-1.9 2.2-3.3 3.1-4.7 11-17.8 21.9-35.6 33.1-53.3 2.1-3.5 2.5-6.7 1.3-10.4zm-47.6.6c-1 1.7-3.5 3.2-5.5 3.5-1.7.2-4-5.6-3.2-7.5.9-2.2 1.7-4.5 3.1-6.3 1.1-1.4 3.7-3.4 4.7-3 1.6.7 2.4 3.2 3.3 4.5-1 3.6-1.1 6.5-2.4 8.8zm16.1 46.3c-2 2.3-4.8 2-6.1-.6-2.4-4.8.7-13 5.8-15.3 4.7 5.4 4.8 10.9.3 15.9zm3-38.6c-2.2 1.5-4.1.9-5.2-1.4-.8-1.6-1-3.5-1.7-6.1 1.3-2.5 2.5-5.7 4.3-8.5 1.5-2.3 3.6-1.8 5.2.2 2.9 3.7 1.4 13.2-2.6 15.8zm3.8-39.3c-.9.6-2.9 1.1-3.5.6-1.4-1.2-2.2-3-2.9-4.1.7-3.8 1-6.9 2-9.7.5-1.3 2.2-2.8 3.6-3.1 1-.2 2.6 1.4 3.4 2.6 2.4 3.6.9 11.3-2.6 13.7zm16.7 41.1c-.7 1.1-4.1 2-4.4 1.7-1.4-2-2.8-4.4-2.9-6.7-.1-2 1.2-4.4 2.5-6.1 1.2-1.6 3.7-3.7 4.9-3.3 1.7.5 2.7 3.2 4.2 5.2-1.6 3.5-2.6 6.6-4.3 9.2z"/><path d="m140.5 18c-21.6.5-43.2 1.1-64.7 1.5-4 .1-7 1.3-9.8 4.1-14.9 14.2-29.8 28.3-44.8 42.4-1.5 1.4-3.3 2.5-5 3.8.3.5.7 1 1 1.4 1.6.2 3.1.6 4.7.7 9 .8 18.1 1.4 27.1 2.2 12.7 1.1 25.4 2.3 38.1 3.5 4.4.4 8.3-.1 11.4-3.8 11.5-13.7 23-27.2 34.5-40.8 4-4.8 8.1-9.6 12.7-15-2.4 0-3.8 0-5.2 0zm-68.9 31.8c2.9-6.5 12-11.1 18.2-8.9-2.7 7-12.4 11.6-18.2 8.9z"/><path d="m328.5 44.7c-2.5-.5-4.1-.9-6.2-1.3 1.6-2.4 2.9-4.3 4.8-7.2.6 3.3.9 5.5 1.4 8.5z"/><path d="m441.7 367.4c-.1-1.8-.3-3.6-.2-5.4 0-.8.6-2 1.2-2.1.9-.2 2.1.1 2.8.7.4.4.4 1.8.1 2.4-.9 1.7-2 3.2-3.1 4.8-.2-.1-.5-.3-.8-.4z"/></g></svg>