<svg enable-background="new 0 0 512 512" viewBox="0 0 512 512" xmlns="http://www.w3.org/2000/svg"><g fill="#999"><path d="m506.6 188.2-242.7-158.1c-4.7-3-11-3-15.7 0l-242.8 158.1c-5.9 3.9-7.2 11.3-2.9 16.5 4.3 5.3 12.7 6.4 18.6 2.6l234.9-153 234.8 153c2.4 1.5 5.1 2.3 7.8 2.3 4.1 0 8.1-1.7 10.7-4.8 4.5-5.3 3.2-12.7-2.7-16.6z"/><path d="m442.2 210c-7.3 0-13.3 5.3-13.3 11.8v188.5h-106.4v-102.9c0-32.6-29.8-59.2-66.5-59.2s-66.5 26.6-66.5 59.2v102.9h-106.4v-188.4c0-6.5-6-11.8-13.3-11.8s-13.3 5.3-13.3 11.8v200.3c0 6.5 6 11.8 13.3 11.8h133c7 0 12.7-4.8 13.3-10.9 0-.3.1-.6.1-.9v-114.8c0-19.6 17.9-35.5 39.9-35.5s39.9 15.9 39.9 35.5v114.7c0 .3 0 .6.1.9.5 6.1 6.3 10.9 13.3 10.9h133c7.3 0 13.3-5.3 13.3-11.8v-200.2c-.2-6.6-6.1-11.9-13.5-11.9z"/></g></svg>