<?xml version="1.0" encoding="utf-8"?>
<!-- Generator: Adobe Illustrator 21.0.0, SVG Export Plug-In . SVG Version: 6.00 Build 0)  -->
<svg version="1.1" id="Layer_1" xmlns="http://www.w3.org/2000/svg" xmlns:xlink="http://www.w3.org/1999/xlink" x="0px" y="0px"
	 viewBox="0 0 59.6 59.6" style="enable-background:new 0 0 59.6 59.6;" xml:space="preserve">
<style type="text/css">
	.st0{fill:#FF0000;}
</style>
<title>Artboard 1</title>
<g id="Layer_1_1_">
	<path class="st0" d="M33,35c-0.2,0.1-0.3,0.2-0.4,0.4c-0.1,0.3-0.2,0.5-0.3,0.8c-0.6,2.4-1.1,4.9-1.6,7.3c-0.1,0.4-0.1,0.8-0.2,1.2
		c0,0.3,0.1,0.4,0.4,0.4s0.6-0.2,0.7-0.5s0.2-0.7,0.3-1c0.5-2,0.9-4,1.4-6.1c0.2-0.7,0.3-1.4,0.4-2.1C33.8,35,33.4,34.8,33,35z"/>
	<path class="st0" d="M53.9,27.7c-1,0.9-0.8,0.8-1.5,1.1c-1.1,0.4-2.2,0.5-3.3,0.2c-1.6-0.1-3-0.9-3.8-2.2c-0.3-0.7-0.6-1.4-0.7-2.2
		c0-0.9-0.1-1.4,1.1-3c0.6-0.7,1.4-1.4,2.1-2c1.1-0.8,2-1.9,2.7-3.1c0.6-1.7,0.5-3.5-0.1-5.1c-0.7-2.2-2.3-4-4.5-4.8
		c0,0,3,3.7,2.8,6.1c-0.2,1.6-1.3,4-4.9,4.5c-1.5,0.2-4.6-1.1-5.5-2.1c-1.4-1.5-2.2-3.4-2.4-5.4C35.7,8.1,36,6.5,36.7,5
		C38.3,2.5,42,1.9,42,1.9s-4.4-0.9-7.3,1c-1.8,1.2-4.3,3.2-3.2,8.4c0.4,1.7,2.8,6.3,2.8,8.6c0,1.7-0.8,7-4.4,7.7
		c-1.1,0.3-2.4,0.2-3.4-0.3C23,25.5,23.3,20,23.8,18c0.8-3.4,1.2-5.9-0.1-9.6c-0.9-2.4-2.1-3.1-3.1-4.2c-1.8-1.5-3.7-2.9-5.7-4.1
		c0.6,0.5,4.3,5.3,4.9,7.6c0.7,3.3-0.3,6.7-2.8,8.9c-1.8,1.8-2.7,2.4-3.9,3.8C11.5,22.1,10.2,24,9,26l0,0c0-0.1,0-0.2-0.1-0.2
		c-0.3-0.3-0.7-1.2-0.9-1.4c-2.4-2.7-6.9-1.4-7.5-1.2c0.5,0.1,4.4,0.5,5.3,3.3c0.7,2.1,1,4.4,1,6.6c-0.1,1-0.2,2-0.2,2.9
		c0,13.1,10.6,23.8,23.8,23.8c9.8,0,18.5-6,22.1-15.1c1.2-3,2-6.1,2.2-9.4c0-1.8,0.2-3.6,0.7-5.3c0.5-1.4,1.5-2.5,2.8-3.1
		C56.8,26.1,55,26.5,53.9,27.7z M24.6,47.2c0,0.1,0,0.1-0.2,0.1h-4h-0.1c0.4-2,0.9-4,1.3-6.1h-1.3c-0.1,0.6-0.3,1.2-0.4,1.8
		c-0.3,1.4-0.6,2.8-0.9,4.2c0,0.1-0.1,0.1-0.2,0.1h-4h-0.1c0.1-0.5,0.2-1,0.3-1.5c0.8-3.5,1.6-7,2.3-10.5c0.2-0.8,0.3-1.5,0.5-2.3
		c0-0.1,0-0.1,0.2-0.1h4h0.1c-0.4,1.7-0.8,3.4-1.1,5.2h1.3c0.4-1.7,0.8-3.4,1.1-5.2h4.2c-0.1,0.5-0.2,0.9-0.3,1.4
		c-0.8,3.8-1.7,7.5-2.5,11.3C24.9,46.1,24.7,46.6,24.6,47.2z M37.8,36c-0.3,1.8-0.7,3.6-1.1,5.4c-0.2,0.9-0.4,1.7-0.6,2.6
		c-0.4,1.6-1.7,2.9-3.3,3.3c-0.7,0.2-1.5,0.3-2.2,0.3c-0.8,0-1.6-0.1-2.3-0.4c-1.2-0.4-1.9-1.7-1.7-2.9c0.3-1.6,0.6-3.2,1-4.8
		c0.2-1.1,0.5-2.3,0.8-3.4c0.4-1.6,1.7-2.8,3.2-3.3c1.4-0.5,2.9-0.5,4.2-0.1C37.2,33.1,38.1,34.5,37.8,36L37.8,36z M47.9,35.7h-2.5
		c-0.9,3.9-1.7,7.7-2.6,11.6h-4.2c0.9-3.9,1.7-7.7,2.6-11.6h-2.5c0.2-1,0.4-1.9,0.6-2.9h9.2C48.3,33.8,48.1,34.8,47.9,35.7
		L47.9,35.7z"/>
	<path class="st0" d="M10.7,17.9C10,17.3,9.4,16.6,9,15.8c-0.3-0.9-0.2-2,0.4-2.8c1.2-1.9,2.4-2.8,2.7-3.7c0.6-1.9-1-4.3-1-4.3
		c1.2,1.4,2.3,2.9,3.3,4.5c0.4,1,1.1,3.1-0.4,4.4c-0.7,0.6-2.6,1.1-3.1,2.2C10.7,16.7,10.6,17.3,10.7,17.9z"/>
</g>
</svg>
