<svg enable-background="new 0 0 59.6 59.6" viewBox="0 0 59.6 59.6" xmlns="http://www.w3.org/2000/svg"><g fill="#666"><path d="m33 35c-.2.1-.3.2-.4.4-.1.3-.2.5-.3.8-.6 2.4-1.1 4.9-1.6 7.3-.1.4-.1.8-.2 1.2 0 .3.1.4.4.4s.6-.2.7-.5.2-.7.3-1c.5-2 .9-4 1.4-6.1.2-.7.3-1.4.4-2.1.1-.4-.3-.6-.7-.4z"/><path d="m53.9 27.7c-1 .9-.8.8-1.5 1.1-1.1.4-2.2.5-3.3.2-1.6-.1-3-.9-3.8-2.2-.3-.7-.6-1.4-.7-2.2 0-.9-.1-1.4 1.1-3 .6-.7 1.4-1.4 2.1-2 1.1-.8 2-1.9 2.7-3.1.6-1.7.5-3.5-.1-5.1-.7-2.2-2.3-4-4.5-4.8 0 0 3 3.7 2.8 6.1-.2 1.6-1.3 4-4.9 4.5-1.5.2-4.6-1.1-5.5-2.1-1.4-1.5-2.2-3.4-2.4-5.4-.2-1.6.1-3.2.8-4.7 1.6-2.5 5.3-3.1 5.3-3.1s-4.4-.9-7.3 1c-1.8 1.2-4.3 3.2-3.2 8.4.4 1.7 2.8 6.3 2.8 8.6 0 1.7-.8 7-4.4 7.7-1.1.3-2.4.2-3.4-.3-3.5-1.8-3.2-7.3-2.7-9.3.8-3.4 1.2-5.9-.1-9.6-.9-2.4-2.1-3.1-3.1-4.2-1.8-1.5-3.7-2.9-5.7-4.1.6.5 4.3 5.3 4.9 7.6.7 3.3-.3 6.7-2.8 8.9-1.8 1.8-2.7 2.4-3.9 3.8-1.6 1.7-2.9 3.6-4.1 5.6 0-.1 0-.2-.1-.2-.3-.3-.7-1.2-.9-1.4-2.4-2.7-6.9-1.4-7.5-1.2.5.1 4.4.5 5.3 3.3.7 2.1 1 4.4 1 6.6-.1 1-.2 2-.2 2.9 0 13.1 10.6 23.8 23.8 23.8 9.8 0 18.5-6 22.1-15.1 1.2-3 2-6.1 2.2-9.4 0-1.8.2-3.6.7-5.3.5-1.4 1.5-2.5 2.8-3.1-1.4-.8-3.2-.4-4.3.8zm-29.3 19.5c0 .1 0 .1-.2.1h-4-.1c.4-2 .9-4 1.3-6.1h-1.3c-.1.6-.3 1.2-.4 1.8-.3 1.4-.6 2.8-.9 4.2 0 .1-.1.1-.2.1h-4-.1c.1-.5.2-1 .3-1.5.8-3.5 1.6-7 2.3-10.5.2-.8.3-1.5.5-2.3 0-.1 0-.1.2-.1h4 .1c-.4 1.7-.8 3.4-1.1 5.2h1.3c.4-1.7.8-3.4 1.1-5.2h4.2c-.1.5-.2.9-.3 1.4-.8 3.8-1.7 7.5-2.5 11.3.1.5-.1 1-.2 1.6zm13.2-11.2c-.3 1.8-.7 3.6-1.1 5.4-.2.9-.4 1.7-.6 2.6-.4 1.6-1.7 2.9-3.3 3.3-.7.2-1.5.3-2.2.3-.8 0-1.6-.1-2.3-.4-1.2-.4-1.9-1.7-1.7-2.9.3-1.6.6-3.2 1-4.8.2-1.1.5-2.3.8-3.4.4-1.6 1.7-2.8 3.2-3.3 1.4-.5 2.9-.5 4.2-.1 1.4.4 2.3 1.8 2 3.3zm10.1-.3h-2.5c-.9 3.9-1.7 7.7-2.6 11.6h-4.2c.9-3.9 1.7-7.7 2.6-11.6h-2.5c.2-1 .4-1.9.6-2.9h9.2c-.2 1-.4 2-.6 2.9z"/><path d="m10.7 17.9c-.7-.6-1.3-1.3-1.7-2.1-.3-.9-.2-2 .4-2.8 1.2-1.9 2.4-2.8 2.7-3.7.6-1.9-1-4.3-1-4.3 1.2 1.4 2.3 2.9 3.3 4.5.4 1 1.1 3.1-.4 4.4-.7.6-2.6 1.1-3.1 2.2-.2.6-.3 1.2-.2 1.8z"/></g></svg>