<?xml version="1.0" encoding="utf-8"?>
<!-- Generator: Adobe Illustrator 21.0.0, SVG Export Plug-In . SVG Version: 6.00 Build 0)  -->
<svg version="1.1" id="Layer_1" xmlns="http://www.w3.org/2000/svg" xmlns:xlink="http://www.w3.org/1999/xlink" x="0px" y="0px"
	 viewBox="0 0 512 512" style="enable-background:new 0 0 512 512;" xml:space="preserve">
<style type="text/css">
	.st0{fill:#666666;}
</style>
<g>
	<path class="st0" d="M109.5,465.2c0-0.5-0.1-1-0.4-1.5c3.1-3.3,7.2-2.9,11-2.9c90.6-0.1,181.1-0.1,271.7,0c3.9,0,8-0.4,11,2.9
		c-0.2,0.5-0.4,1-0.4,1.5C304.8,465.2,207.2,465.2,109.5,465.2z"/>
	<g>
		<g>
			<g>
				<path class="st0" d="M503.6,75.5c-11.6-16.7-26.4-27.9-47.2-29.7c-1.1,0-2.2,0-3.4,0c-2.2,2.7-5.2,1.6-7.8,1.6
					c-126.1,0-252.3,0-378.4,0c-2.7,0-5.7,1-7.8-1.6c-1.1,0-2.2,0-3.4,0C22.8,51.9,5.4,69.3,0,101.4c0,80.8,0,161.7,0,242.5
					c1.2,11.3,4.1,21.7,11.5,30.9C26.4,393,45.3,402,68.7,402c124,0,248.1,0,372.1,0c39.1,0,63.9-20.3,71.2-58.1
					c0-80.8,0-161.7,0-242.5C510.4,92.4,509.1,83.4,503.6,75.5z M471.2,331.1c0,20.1-7.9,27.9-28.1,27.9c-62.3,0-124.6,0-186.9,0
					c-62.6,0-125.2,0-187.8,0c-19.6,0-27.4-7.9-27.4-27.7c0-72.1,0-144.3,0-216.4c0-20,8-28,28.1-28c124.6,0,249.3,0,373.9,0
					c20.4,0,28.3,8,28.3,28.7C471.2,187.4,471.2,259.2,471.2,331.1z"/>
				<path class="st0" d="M67.2,46.6c125.9,0,251.8,0,377.7,0c2.7,0,5.6,0.7,8.2-0.8c-131.4,0-262.7,0-394.1,0
					C61.6,47.4,64.4,46.6,67.2,46.6z"/>
			</g>
		</g>
	</g>
	<path class="st0" d="M402.9,463.7c-97.9,0-195.8,0-293.8,0c-9.8-3.7-14-9.8-13.5-19.6c0.4-8.9,5.9-15.6,15-17.9
		c2.9-0.7,6.1-1,9.1-1c90.9,0,181.7-0.1,272.6,0c15.1,0,24,7.3,24.1,19.7C416.5,454.3,412.4,460,402.9,463.7z"/>
	<path class="st0" d="M324,228.7c9.9-19.4,19.2-37.5,28.4-55.8c2.9-5.7,6.4-10.7,13.1-12.1c7.1-1.6,13.4,0.2,18.1,6
		c5.2,6.4,5,13.4,1.4,20.5c-10.3,20.2-20.7,40.3-31.1,60.5c-4.6,9-9.2,17.9-13.8,26.9c-3.3,6.6-8.6,10.3-16,10.4s-13-3.3-16.3-9.9
		c-15.2-29.6-30.5-59.3-45.4-89c-4.8-9.7-1.3-19.8,7.7-24.2s18.8-1,24,8.9c8.7,16.6,17.1,33.4,25.7,50
		C321,223.1,322.2,225.3,324,228.7z"/>
	<path class="st0" d="M186.9,157.8c14,0,28.1-0.1,42.1,0c12.1,0.1,20.1,7.5,20,18c-0.2,10.1-8,17-19.8,17.3
		c-5.9,0.1-11.8,0.4-17.7-0.1c-5.8-0.5-7.7,1.3-7.6,7.4c0.4,22.2,0.2,44.3,0.1,66.5c0,12.7-6.5,20.4-17.1,20.6
		c-10.8,0.2-18-7.9-18.1-20.8c-0.1-22.2-0.2-44.3,0.1-66.5c0.1-5.5-1.4-7.5-6.9-7.1c-6.1,0.4-12.3,0.2-18.5,0.1
		c-11.7-0.3-19.2-7.4-19.1-17.8c0.1-10.1,7.4-17.2,18.7-17.4C157.7,157.7,172.3,157.8,186.9,157.8L186.9,157.8z"/>
</g>
</svg>
