<?xml version="1.0" encoding="utf-8"?>
<!-- Generator: Adobe Illustrator 21.0.0, SVG Export Plug-In . SVG Version: 6.00 Build 0)  -->
<svg version="1.1" id="Layer_1" xmlns="http://www.w3.org/2000/svg" xmlns:xlink="http://www.w3.org/1999/xlink" x="0px" y="0px"
	 viewBox="0 0 512 512" style="enable-background:new 0 0 512 512;" xml:space="preserve">
<style type="text/css">
	.st0{fill:#1ADB05;}
	.st1{fill:#5EFA4E;}
	.st2{fill:#3CFA29;}
	.st3{fill:#3BFA27;}
	.st4{fill:#7EFB71;}
	.st5{fill:#49FA37;}
	.st6{fill:#4BFA39;}
	.st7{fill:#A2FC99;}
	.st8{fill:#73FB65;}
</style>
<g>
	<path class="st0" d="M235.6,496c-9.4-4.6-13.3-12-10.8-22.2c2.4-9.9,10.9-10.4,18.8-10.9c12.8-0.8,25.7-1.4,38.6-1.2
		c4.8,0.1,11.8,0.8,13.9,3.9c6.6,9.8,15.2,6.5,23.3,5.4c34.5-4.4,67.5-13.7,96.9-33.2c14.4-9.6,26.4-21.3,34.2-37.1
		c2.9-5.8,3.5-9.2-4.1-11.7c-10.2-3.3-13.1-12.3-13.1-21.9c-0.2-39.9-0.1-79.8-0.1-119.7c0-5.9,0.6-12.5,5.1-16.2
		c7.5-6.1,6.8-13.2,5.7-21.2c-7.8-61-35.1-112.7-89.5-140.4c-53-27-110.5-31.9-170.8-12C120.7,78.4,89.2,122.8,70,181.1
		c-2.6,7.8-3.3,16.2-4.8,24.4c-1.7,9.4-3.5,18.3,6.6,25.3c5.2,3.6,5,11.1,5,17.4c0,39.1,0.2,78.1,0.1,117.2
		c-0.1,15.5-6.1,23.6-18.3,25.5c-20.7,3.3-34-1-37-15.9c-2.2-11.1-12.1-14.7-15.5-23.6c-2.7-13.9-0.5-27.9-1.2-41.8
		c-0.7-14.3,1.5-28.8-1.3-43.1c0-0.8,0-1.7,0-2.5c6.2-11.6,13.9-22.3,19.4-34.2c0.7-1.5,1.9-3.2,3.3-3.6c16-5.1,15.5-18.7,17.9-31.9
		C55.8,130.6,89.6,81.8,144.6,47.7c9.5-5.9,18.1-12.8,26.9-19.8c15.5-12.4,35-14.3,54.3-14.7c4.9-0.7,10.1,1.4,14.9-1.3
		c0.8,0,1.7,0,2.5,0c7.5,2,15,2,22.5,0c5,0,10,0,15,0c10.7,3.1,22.1,1.5,32.8,5.4c12.1,4.4,24.4,7.7,32.8,18.8
		c3.9,5.2,11.1,7.1,16.7,10.7c54.2,34.4,89.4,81.9,101.5,145.6c0.6,3.3,1.5,6.5,1.3,9.9c-0.4,10.5,1.9,19,14.2,21.1
		c2.4,0.4,5,2,6,4.2c6.6,13.1,17.3,24,20.4,39c0,10.1,0,20.2,0,30.3c0,16.3,0,32.5,0,48.8c0.4,5.6-2.2,10-4.6,14.9
		c-9.1,18.2-24.9,31.6-34.5,49.4c-10.4,19.3-27.1,32.1-45.8,42.8c-30.4,17.4-63.4,26.6-97.9,31c-9.2,1.1-18.1,1.9-25.1,9
		c-3.5,3.5-9,0.7-12.9,3.3c-1.7,0-3.3,0-5,0c-5-2-10-2-15,0c-2.5,0-5,0-7.5,0c-5.8-2.1-11.6-2.1-17.5,0C239,496,237.3,496,235.6,496
		z"/>
	<path class="st1" d="M507.6,348.8c-0.7,0.2-1.5,0.3-2.2,0.4c0.1-17.7,0.1-35.3,0.2-53c0.8-0.9,1.4-0.8,2,0.2
		C507.6,313.9,507.6,331.3,507.6,348.8z"/>
	<path class="st2" d="M3.6,266.5c5.5,13.9,1.2,28.3,2.4,42.4c-0.8,1.1-1.6,1.2-2.4,0C3.6,294.7,3.6,280.6,3.6,266.5z"/>
	<path class="st3" d="M3.6,308.9c0.8,0,1.6,0,2.4,0c0,14.2,0.1,28.3,0.1,42.5c-0.8,0-1.6,0-2.5-0.1C3.6,337.2,3.6,323,3.6,308.9z"/>
	<path class="st4" d="M507.6,296.4c-0.7-0.1-1.4-0.1-2-0.2c-0.1-10.8-0.2-21.6-0.3-32.4c0.8,0.3,1.5,0.4,2.3,0.2
		C507.6,274.8,507.6,285.6,507.6,296.4z"/>
	<path class="st5" d="M265.6,12c-7.5,4-15,4-22.5,0C250.6,12,258.1,12,265.6,12z"/>
	<path class="st6" d="M240.6,496c5.8-3.7,11.6-4,17.5,0C252.3,496,246.5,496,240.6,496z"/>
	<path class="st7" d="M225.5,14.2c0.2-0.7,0.3-1.5,0.2-2.2c5,0,10,0,15,0C236,15.9,230.7,14.4,225.5,14.2z"/>
	<path class="st8" d="M265.6,496c5-3.7,10-4.1,15,0C275.6,496,270.6,496,265.6,496z"/>
	<path class="st0" d="M138.6,327.4c-7.1,0-14.1,0.1-21.2,0c-12.1-0.1-15-5.1-8.7-16.4c12.4-22.6,25.1-45,38.1-67.3
		c3.9-6.7,5.8-13.4,5.5-21.2c-0.4-13-9.2-19-21.7-14c-6.7,2.7-3.3,8.7-3.5,13.1c-0.6,11.4-4.6,14.9-15,11.9
		c-2.2-0.6-4.2-1.6-4.1-3.8c0.1-10.4-0.1-20.8,1-31.1c0.5-4.9,5.1-7.1,10.3-7c13.3,0.1,26.6,0.1,39.9,0c8.5-0.1,11.8,4.4,12.2,12.3
		c1,19.3-0.3,37.7-12.2,54.6c-9.5,13.5-16.5,28.8-24.9,43.1c-3.7,6.2-3.5,8.9,4.6,8.5c8.3-0.4,16.6,0.1,24.9-0.2
		c6.2-0.3,7.7,2.6,7.6,8.2c-0.1,5.6-0.3,9.8-7.8,9.3C155.3,327,147,327.4,138.6,327.4z"/>
	<path class="st0" d="M203.8,283.6c2.8,0.4,4.8,0.6,6.8,0.9c11.2,1.9,17.4-1.2,15.3-14.2c-0.9-5.3,0.1-10.8-0.2-16.2
		c-0.4-6.7,0.4-10.7,9-10.9c8.9-0.1,10.7,3.4,10.1,11.1c-0.5,6.6-0.2,13.3-0.1,19.9c0.1,4.7-1.1,8.7,6.3,10.9
		c7.2,2.2,4.9,14.4,1.8,15c-11.4,2.2-7.9,9.9-7.9,16.1c0,7-0.3,11.4-9.7,11.5c-9.8,0.1-10.3-4.9-9.3-11.6c1.9-12.3-3.1-16.3-15-14.7
		c-6.1,0.9-12.5-0.4-18.7,0.3c-11.6,1.3-12.8-4.9-9.9-13.4c10-30.3,20.4-60.6,30.6-90.9c3.5-10.4,12.3-6.3,17.9-5.2
		c7.2,1.4,1.3,7.2,0.2,10.5C222.1,229.6,213,256.3,203.8,283.6z"/>
	<path class="st0" d="M375.7,191.7c7.5,0,15,0.7,22.4-0.2c10.2-1.2,12.8,3.5,10.7,12.1c-9.8,39.1-19.8,78.1-29.7,117.1
		c-2.7,10.7-11.4,7.1-17.3,6.1c-7.5-1.3-2.1-7.6-1.3-10.9c7.8-32.3,16.3-64.4,24.2-96.6c0.9-3.7,6.3-11.5-3.4-10.3
		c-6.8,0.8-19-8.2-20,7.6c-0.4,6.4,1,12.3-9.1,12c-7.5-0.2-9.9-2-9.9-9.8c-0.1-27-0.5-27,25.9-27
		C370.7,191.7,373.2,191.7,375.7,191.7z"/>
	<path class="st0" d="M333,193.1c-11.5,29-23.1,58.3-34.6,87.5c-5,12.7-10.3,25.4-14.9,38.3c-2.3,6.5-5.8,9-12.8,8.8
		c-6.9-0.2-8.7-1-5.7-8.4c13.9-34.2,27.2-68.6,40.7-103c1.4-3.5,3.3-6.8,4-10.4C312.4,193.2,319.5,188.3,333,193.1z"/>
</g>
</svg>
