<svg enable-background="new 0 0 512 512" viewBox="0 0 512 512" xmlns="http://www.w3.org/2000/svg"><g fill="#666"><path d="m437 75c-48.3-48.4-112.6-75-181-75s-132.7 26.6-181 75c-48.4 48.3-75 112.6-75 181s26.6 132.7 75 181c48.4 48.4 112.6 75 181 75s132.7-26.6 181-75c48.4-48.4 75-112.6 75-181s-26.6-132.7-75-181zm-181 414.7c-128.9 0-233.7-104.8-233.7-233.7s104.8-233.7 233.7-233.7 233.7 104.8 233.7 233.7-104.8 233.7-233.7 233.7z"/><path d="m361.2 371.4c-3.8-4.8-10.8-5.6-15.6-1.8s-5.7 10.8-1.9 15.6c2.2 2.8 5.5 4.3 8.8 4.3 2.4 0 4.8-.8 6.8-2.4 0 0 .1-.1.2-.1 4.8-3.8 5.6-10.8 1.7-15.6z"/><path d="m256 89c-92.1 0-167 74.9-167 167s74.9 167 167 167c25 0 49.1-5.4 71.6-16.1 5.6-2.6 7.9-9.3 5.3-14.8-2.6-5.6-9.3-7.9-14.8-5.3-19.4 9.2-40.3 13.9-62 13.9-79.8 0-144.7-64.9-144.7-144.7s64.8-144.7 144.6-144.7 144.7 64.9 144.7 144.7c0 33.2-10.9 64.4-31.6 90.2-3.8 4.8-3.1 11.8 1.8 15.6 4.8 3.8 11.8 3.1 15.6-1.8 23.5-29.3 36.5-66.3 36.5-104 0-92.1-74.9-167-167-167z"/><path d="m287.8 246.5c9.5-8.7 15.5-21.2 15.5-35 0-26.1-21.2-47.3-47.3-47.3s-47.3 21.2-47.3 47.3c0 13.9 6 26.4 15.5 35-14.4 10.1-23.9 26.8-23.9 45.7 0 30.7 25 55.7 55.7 55.7s55.7-25 55.7-55.7c0-18.9-9.5-35.6-23.9-45.7zm-31.8-60.1c13.8 0 25 11.2 25 25s-11.2 25-25 25-25-11.2-25-25 11.2-25 25-25zm0 139.2c-18.4 0-33.4-15-33.4-33.4s15-33.4 33.4-33.4 33.4 15 33.4 33.4-15 33.4-33.4 33.4z"/></g></svg>