<?xml version="1.0" encoding="utf-8"?>
<!-- Generator: Adobe Illustrator 21.0.0, SVG Export Plug-In . SVG Version: 6.00 Build 0)  -->
<svg version="1.1" id="Layer_1" xmlns="http://www.w3.org/2000/svg" xmlns:xlink="http://www.w3.org/1999/xlink" x="0px" y="0px"
	 viewBox="0 0 467.2 467.5" style="enable-background:new 0 0 467.2 467.5;" xml:space="preserve">
<style type="text/css">
	.st0{fill:#FF0000;}
</style>
<path class="st0" d="M323.4,347.3c-4.8,3.8-5.7,10.8-1.9,15.6c2.2,2.8,5.5,4.3,8.8,4.3c2.4,0,4.8-0.8,6.8-2.4c0,0,0.1-0.1,0.2-0.1
	c4.8-3.8,5.6-10.9,1.8-15.7C335.1,344.3,328.2,343.5,323.4,347.3z"/>
<g>
	<circle class="st0" cx="233.7" cy="269.9" r="33.4"/>
	<ellipse transform="matrix(0.9732 -0.2298 0.2298 0.9732 -37.2224 58.7693)" class="st0" cx="233.7" cy="189.2" rx="25" ry="25"/>
	<path class="st0" d="M233.7,0C104.9,0,0,104.8,0,233.7s104.9,233.7,233.7,233.7s233.7-104.9,233.7-233.7S362.6,0,233.7,0z
		 M364.3,337.8c-3.8,4.8-10.8,5.6-15.6,1.8c-4.8-3.8-5.6-10.8-1.8-15.6c20.6-25.9,31.6-57.1,31.6-90.2
		c0-79.8-64.9-144.7-144.7-144.7S89,153.9,89,233.7s65,144.7,144.7,144.7c21.7,0,42.6-4.7,62-13.9c5.5-2.6,12.2-0.3,14.8,5.3
		s0.3,12.2-5.3,14.8c-22.4,10.7-46.5,16.1-71.6,16.1c-92.1,0-167-74.9-167-167s74.9-167,167-167s167,74.9,167,167
		C400.7,271.4,387.8,308.4,364.3,337.8z M186.4,189.2c0-26.1,21.2-47.3,47.3-47.3s47.3,21.2,47.3,47.3c0,13.9-6,26.4-15.5,35
		c14.4,10.1,23.9,26.8,23.9,45.7c0,30.7-25,55.7-55.7,55.7s-55.7-25-55.7-55.7c0-18.9,9.5-35.6,23.9-45.7
		C192.4,215.6,186.4,203.1,186.4,189.2z"/>
</g>
</svg>
