<?xml version="1.0" encoding="utf-8"?>
<!-- Generator: Adobe Illustrator 21.0.0, SVG Export Plug-In . SVG Version: 6.00 Build 0)  -->
<svg version="1.1" id="Layer_1" xmlns="http://www.w3.org/2000/svg" xmlns:xlink="http://www.w3.org/1999/xlink" x="0px" y="0px"
	 viewBox="0 0 512 512" style="enable-background:new 0 0 512 512;" xml:space="preserve">
<style type="text/css">
	.st0{fill:#FF0000;}
</style>
<path class="st0" d="M153,64.5c4,0,7.7-2.4,9.3-6.3l0,0c2.1-5.1-0.4-10.9-5.6-13c-5.1-2.1-10.9,0.4-13,5.6s0.4,10.9,5.6,13
	C150.5,64.3,151.7,64.5,153,64.5L153,64.5z"/>
<path class="st0" d="M256.8,361.8c-5.4-1.3-10.8,1.9-12.1,7.3s1.9,10.8,7.3,12.1c0.8,0.2,1.6,0.3,2.4,0.3c4.5,0,8.6-3,9.7-7.6l0,0
	C265.4,368.6,262.1,363.2,256.8,361.8z"/>
<path class="st0" d="M466,482V162c0-5.5-4.5-10-10-10h-91.1l-24.1,90c1-0.3,2-0.6,3-0.8c1.4-0.3,2.9-0.3,4.2,0
	c16.4,3.6,46.3,25.8,62.8,51.9c10.3,16.3,14,32.2,10.7,46.1c-3.8,16.1-17.1,29.5-33.2,33.3c-11.3,2.7-22.8,0.8-32.4-5V383h2.4
	c5.5,0,10,4.5,10,10s-4.5,10-10,10h-24.8c-5.5,0-10-4.5-10-10s4.5-10,10-10h2.4v-15.5c-6.7,4-14.4,6.2-22.2,6.2
	c-2.7,0-5.3-0.3-8-0.7l-8.3,30.9c-3.6,13.4-15.7,22.2-29,22.2c-2.6,0-5.2-0.3-7.8-1l-34.7-9.3V482c0,5.5,4.5,10,10,10h220
	C461.5,492,466,487.5,466,482L466,482z M446,462c0,5.5-4.5,10-10,10s-10-4.5-10-10s4.5-10,10-10S446,456.5,446,462L446,462z"/>
<path class="st0" d="M356.5,67.6L144,10.7c-10.6-2.8-21.6,3.5-24.5,14.1l-14.7,54.9c0.1,0,0.1,0,0.2,0c5.3,1.5,8.4,7,6.9,12.4l0,0
	c-1.3,4.4-5.3,7.3-9.6,7.3c-0.9,0-1.7-0.1-2.6-0.4l-63,234.9c-2.8,10.6,3.5,21.6,14.1,24.5L216,402.7l47.3,12.7
	c10.6,2.8,21.6-3.5,24.5-14.1l11-41l26.4-98.5L357.3,142l13.4-49.9C373.5,81.5,367.1,70.5,356.5,67.6z M284.9,201.8
	c-0.4,14.2-8.1,28.6-22.3,41.7c-22.1,20.4-55.3,33.9-72.6,33.9c-0.5,0-1,0-1.4,0c-1.4-0.1-2.8-0.4-4.1-1.1
	c-15-7.7-38-36.9-47.2-66.4l0,0c-5.7-18.4-5.2-34.7,1.6-47.3c7.8-14.6,24.1-24.1,40.7-23.6c15.2,0.5,28.8,8.5,36.4,21.6l0,0
	c0.3,0.6,0.9,1,1.5,1.2c0.5,0.1,1.2,0,1.8-0.3c13.1-7.5,28.9-7.7,42.3-0.5C276,168.9,285.4,185.2,284.9,201.8z"/>
</svg>
