<svg enable-background="new 0 0 512 512" viewBox="0 0 512 512" xmlns="http://www.w3.org/2000/svg"><g fill="#666"><path d="m137.3 209.9c9.2 29.5 32.2 58.7 47.2 66.4 1.3.7 2.7 1 4.1 1.1h1.4c17.3 0 50.5-13.5 72.6-33.9 14.1-13.1 21.8-27.5 22.3-41.7.5-16.6-8.9-32.9-23.4-40.7-13.4-7.2-29.2-7-42.3.5-.6.3-1.3.5-1.8.3-.6-.2-1.1-.6-1.5-1.2-7.6-13.1-21.2-21.2-36.4-21.6-16.5-.5-32.8 9-40.7 23.6-6.6 12.5-7.2 28.8-1.5 47.2zm19.2-37.8c4.2-7.8 13-13.1 21.8-13.1h.7c8.2.3 15.6 4.6 19.7 11.7 3 5.2 7.8 8.9 13.6 10.5 5.7 1.5 11.7.7 16.9-2.3 7.1-4.1 15.6-4.2 22.9-.2 7.9 4.2 13.2 13.5 12.9 22.5-.3 11-8.8 21.1-15.9 27.6-18.7 17.3-45.9 27.6-57.3 28.5-9.4-6.5-27.8-29-35.4-53.4-2.8-9.1-5.1-22 .1-31.8z"/><path d="m153 64.5c4 0 7.7-2.4 9.3-6.3 2.1-5.1-.4-10.9-5.6-13-5.1-2.1-10.9.4-13 5.6s.4 10.9 5.6 13c1.2.5 2.4.7 3.7.7z"/><path d="m256.8 361.8c-5.4-1.3-10.8 1.9-12.1 7.3s1.9 10.8 7.3 12.1c.8.2 1.6.3 2.4.3 4.5 0 8.6-3 9.7-7.6 1.3-5.3-2-10.7-7.3-12.1z"/><path d="m456 132h-85.7l10-37.3c2.1-7.7 1-15.8-3-22.8s-10.5-11.9-18.2-14l-212.5-56.9c-16-4.3-32.5 5.2-36.7 21.2l-5.7 21.1c-1.4 5.3 1.7 10.8 7.1 12.2 5.3 1.4 10.8-1.7 12.2-7.1l5.7-21.1c1.4-5.3 6.9-8.5 12.2-7.1l212.5 56.9c2.6.7 4.7 2.3 6.1 4.7 1.3 2.3 1.7 5 1 7.6l-82.8 309.1c-1.4 5.3-6.9 8.5-12.2 7.1l-212.6-56.8c-5.3-1.4-8.5-6.9-7.1-12.2l53.9-201c1.4-5.3-1.7-10.8-7.1-12.2-5.3-1.4-10.8 1.7-12.2 7.1l-53.9 200.8c-4.3 16 5.2 32.5 21.2 36.7l157.8 42.3v71.7c0 16.5 13.5 30 30 30h220c16.5 0 30-13.5 30-30v-320c0-16.5-13.5-30-30-30zm-110 208.2c-5.9 0-11.5 2.4-15.8 6.6-5.1 5.1-12.1 7.5-19.2 6.6l22.9-85.6c5.1-3.4 9.3-5.4 12.1-6.5 10.7 3.9 34.4 20.9 48 42.4 5.1 8.1 10.7 20.1 8.2 30.8-2.1 8.8-9.6 16.4-18.3 18.4-8 1.9-16.3-.4-22-6.2-4.3-4.1-9.9-6.5-15.9-6.5zm120 141.8c0 5.5-4.5 10-10 10h-220c-5.5 0-10-4.5-10-10v-66.3l34.7 9.3c2.6.7 5.2 1 7.8 1 13.2 0 25.4-8.9 29-22.2l8.3-30.9c2.7.5 5.3.7 8 .7 7.9 0 15.5-2.1 22.2-6.2v15.6h-2.4c-5.5 0-10 4.5-10 10s4.5 10 10 10h24.8c5.5 0 10-4.5 10-10s-4.5-10-10-10h-2.4v-15.6c9.6 5.8 21.1 7.7 32.4 5 16-3.8 29.4-17.2 33.2-33.3 3.3-13.8-.5-29.8-10.7-46.1-16.5-26.1-46.3-48.3-62.8-51.9-1.4-.3-2.8-.3-4.2 0-1 .2-2 .5-3 .8l24.1-90h91c5.5 0 10 4.5 10 10z"/><path d="m436 452c-5.5 0-10 4.5-10 10s4.5 10 10 10 10-4.5 10-10c0-5.5-4.5-10-10-10z"/><path d="m99.5 99c.9.3 1.8.4 2.8.4 4.4 0 8.4-2.9 9.6-7.3 1.5-5.3-1.6-10.8-6.9-12.4-5.3-1.5-10.8 1.6-12.4 6.9-1.5 5.4 1.5 10.9 6.9 12.4z"/></g></svg>