<svg enable-background="new 0 0 512 512" viewBox="0 0 512 512" xmlns="http://www.w3.org/2000/svg"><g fill="#999"><path d="m475.2 264.5c-3.4-5.2-3.4-11.8 0-17l18.7-28.7c17-26.2 5.6-61.3-23.6-72.5l-32-12.3c-5.8-2.2-9.7-7.6-10-13.8l-1.7-34.2c-1.6-31.2-31.6-52.9-61.7-44.8l-33.1 8.9c-5.9 1.6-12.3-.5-16.2-5.3l-21.6-26.7c-19.6-24.3-56.6-24.2-76.2 0l-21.6 26.7c-3.9 4.8-10.2 6.9-16.2 5.3l-33.1-8.9c-30-8.1-59.9 13.7-61.5 44.8l-1.8 34.2c-.3 6.2-4.2 11.6-10 13.8l-32 12.3c-29.2 11.2-40.6 46.4-23.6 72.5l18.7 28.7c3.4 5.2 3.4 11.8 0 17l-18.7 28.7c-17 26.2-5.6 61.4 23.6 72.5l32 12.3c5.8 2.2 9.7 7.6 10 13.8l1.8 34.2c1.6 31.2 31.6 52.9 61.7 44.8l33.1-8.9c6-1.6 12.3.5 16.2 5.3l21.6 26.7c19.6 24.3 56.6 24.2 76.2 0l21.6-26.7c3.9-4.8 10.2-6.8 16.2-5.3l33.1 8.9c30.2 8.1 60.1-13.7 61.7-44.8l1.8-34.2c.3-6.2 4.2-11.5 10-13.8l32-12.3c29.2-11.2 40.6-46.4 23.6-72.5zm-16.8 70-32 12.3c-18.1 6.9-30.4 23.9-31.4 43.2l-1.8 34.2c-.5 9.9-10 16.8-19.6 14.2l-33.1-8.9c-18.7-5-38.7 1.5-50.8 16.5l-21.6 26.7c-6.2 7.7-18 7.7-24.2 0l-21.6-26.7c-9.4-11.7-23.6-18.2-38.1-18.2-4.2 0-8.5.5-12.7 1.7l-33.1 8.9c-9.6 2.6-19.1-4.3-19.6-14.2l-1.8-34.2c-1-19.3-13.3-36.3-31.4-43.2l-32-12.3c-9.3-3.6-12.9-14.7-7.5-23.1l18.7-28.7c10.6-16.2 10.6-37.2 0-53.5l-18.7-28.7c-5.4-8.3-1.8-19.5 7.5-23.1l32-12.3c18.1-6.9 30.4-23.9 31.4-43.2l1.8-34.2c.5-9.9 10-16.8 19.6-14.2l33.1 8.9c18.7 5 38.7-1.5 50.8-16.5l21.6-26.7c6.2-7.7 18-7.7 24.2 0l21.6 26.7c12.2 15.1 32.1 21.5 50.8 16.5l33.1-8.9c9.6-2.6 19.1 4.3 19.6 14.2l1.8 34.3c1 19.3 13.3 36.3 31.4 43.2l32 12.3c9.3 3.6 12.9 14.7 7.5 23.1l-18.7 28.7c-10.6 16.2-10.6 37.2 0 53.5l18.7 28.7c5.4 8.3 1.8 19.5-7.5 23z"/><path d="m339.5 170.8c-6.5-6.5-17.1-6.5-23.6 0l-156 156c-6.5 6.5-6.5 17.1 0 23.6 3.3 3.3 7.5 4.9 11.8 4.9s8.6-1.6 11.8-4.9l156-156c6.5-6.4 6.5-17 0-23.6z"/><path d="m188.4 165.9c-18.4 0-33.4 15-33.4 33.4s15 33.4 33.4 33.4 33.4-15 33.4-33.4-15-33.4-33.4-33.4z"/><path d="m311 288.5c-18.4 0-33.4 15-33.4 33.4s15 33.4 33.4 33.4 33.4-15 33.4-33.4-15-33.4-33.4-33.4z"/></g></svg>