<svg enable-background="new 0 0 512 512" viewBox="0 0 512 512" xmlns="http://www.w3.org/2000/svg"><g fill="#f00"><path d="m475.2 264.5c-3.4-5.2-3.4-11.8 0-17l18.7-28.7c14.8-22.7 8.3-53-14.4-67.8-2.9-1.9-6-3.5-9.2-4.7l-32-12.3c-5.8-2.2-9.7-7.6-10-13.8l-1.7-34.2c-1.4-27-24.5-47.8-51.5-46.4-3.4.2-6.9.7-10.2 1.6l-33.1 8.9c-6 1.6-12.3-.5-16.2-5.3l-21.6-26.7c-17-21-47.9-24.3-68.9-7.3-2.7 2.2-5.1 4.6-7.3 7.3l-21.6 26.7c-3.9 4.8-10.2 6.9-16.2 5.3l-33.1-8.9c-30-8.1-59.9 13.7-61.5 44.8l-1.8 34.2c-.3 6.2-4.2 11.6-10 13.8l-32 12.3c-25.3 9.7-38 38-28.3 63.3 1.2 3.2 2.8 6.3 4.7 9.2l18.7 28.7c3.4 5.2 3.4 11.8 0 17l-18.7 28.7c-14.8 22.7-8.4 53 14.3 67.8 2.9 1.9 6 3.5 9.3 4.7l32 12.3c5.8 2.2 9.7 7.6 10 13.8l1.8 34.2c1.4 27 24.5 47.8 51.5 46.4 3.4-.2 6.9-.7 10.2-1.6l33.1-8.9c6-1.6 12.3.5 16.2 5.3l21.6 26.7c17 21 47.9 24.3 68.9 7.3 2.7-2.2 5.1-4.6 7.3-7.3l21.6-26.7c3.9-4.8 10.2-6.8 16.2-5.3l33.1 8.9c26.2 7 53.1-8.5 60.1-34.6.9-3.3 1.4-6.7 1.6-10.2l1.8-34.2c.3-6.2 4.2-11.6 10-13.8l32-12.3c25.3-9.7 38-38 28.3-63.3-1.2-3.2-2.8-6.3-4.7-9.2zm-16.8 70-32 12.3c-18.1 6.9-30.4 23.9-31.4 43.2l-1.8 34.2c-.4 8.6-7.7 15.2-16.3 14.7-1.1-.1-2.2-.2-3.3-.5l-33.1-8.9c-18.7-5-38.6 1.5-50.8 16.5l-21.6 26.7c-5.4 6.7-15.2 7.7-21.9 2.3-.8-.7-1.6-1.5-2.3-2.3l-21.6-26.7c-9.3-11.5-23.3-18.2-38.1-18.2-4.3 0-8.6.5-12.7 1.7l-33.1 8.9c-8.3 2.3-16.8-2.6-19.1-10.9-.3-1.1-.5-2.2-.5-3.3l-1.8-34.2c-1-19.3-13.3-36.3-31.4-43.2l-32-12.3c-8.1-3.1-12.1-12.1-9-20.2.4-1 .9-2 1.5-2.9l18.7-28.7c10.6-16.3 10.6-37.2 0-53.5l-18.7-28.7c-4.7-7.2-2.6-16.9 4.6-21.6.9-.6 1.9-1.1 2.9-1.5l32-12.3c18.1-6.9 30.4-23.9 31.4-43.2l1.8-34.2c.4-8.6 7.7-15.2 16.3-14.7 1.1.1 2.2.2 3.3.5l33.1 8.9c18.7 5 38.6-1.5 50.8-16.5l21.6-26.7c5.4-6.7 15.2-7.7 21.9-2.3.8.7 1.6 1.5 2.3 2.3l21.6 26.7c12.2 15.1 32.1 21.5 50.8 16.5l33.1-8.9c8.3-2.3 16.8 2.6 19.1 10.9.3 1.1.5 2.2.5 3.3l1.8 34.3c1 19.3 13.3 36.3 31.4 43.2l32 12.3c8.1 3.1 12.1 12.1 9 20.2-.4 1-.9 2-1.5 2.9l-18.7 28.7c-10.6 16.3-10.6 37.2 0 53.5l18.7 28.7c4.7 7.2 2.7 16.8-4.5 21.5-.9.6-1.9 1.1-3 1.5z"/><path d="m339.5 170.8c-6.5-6.5-17.1-6.5-23.6 0l-156 156c-6.5 6.5-6.5 17.1 0 23.6 3.1 3.2 7.4 4.9 11.8 4.9s8.7-1.7 11.8-4.9l156-156c6.5-6.5 6.5-17.1 0-23.6z"/><path d="m188.4 165.9c-18.4 0-33.4 15-33.4 33.4s15 33.4 33.4 33.4 33.4-15 33.4-33.4c0-18.4-15-33.4-33.4-33.4z"/><path d="m311 288.5c-18.4 0-33.4 15-33.4 33.4s15 33.4 33.4 33.4 33.4-15 33.4-33.4c0-18.4-15-33.4-33.4-33.4z"/></g></svg>