<svg enable-background="new 0 0 512 512" viewBox="0 0 512 512" xmlns="http://www.w3.org/2000/svg"><g fill="#666"><path d="m128.6 398.6c-24.3-5.4-44.8-23.8-52.2-46.8-1.5-4.5-6.3-7-10.8-5.5s-7 6.3-5.5 10.8c9.4 29.1 34.3 51.4 64.8 58.3.6.1 1.3.2 1.9.2 3.9 0 7.5-2.7 8.4-6.7.9-4.7-2-9.3-6.6-10.3z"/><path d="m350.7 461.7c-24.3-5.4-44.8-23.8-52.2-46.8-1.5-4.5-6.3-7-10.8-5.5s-7 6.3-5.5 10.8c9.4 29.1 34.3 51.4 64.8 58.3.6.1 1.3.2 1.9.2 3.9 0 7.5-2.7 8.4-6.7.9-4.7-2-9.3-6.6-10.3z"/><path d="m64.6 319.4c.6.1 1.1.2 1.7.2 4 0 7.6-2.8 8.4-6.9 1.9-9.7 5.5-18.7 10.5-27 2.5-4.1 1.2-9.3-2.9-11.8-4-2.5-9.3-1.2-11.8 2.9-6.1 9.9-10.3 20.9-12.7 32.5-.8 4.7 2.2 9.2 6.8 10.1z"/><path d="m427 277.2c18.8-62.8-1.8-119.9-44.8-188.3 5.9 1.3 11.9 2.2 18.2 2.2 6.5 0 13.3-.7 20-2.2 23.2-5.1 44.3-18.6 57.9-37l5.1-6.9-6.9-5.1c-32.9-24.1-82.6-17.6-113.8 12.5-6.5-14.5-17.5-27.1-32.4-36.7-20.1-12.8-44.5-18.1-67.1-14.7l-8.5 1.3 1.3 8.5c3.5 22.5 17 42.4 38.2 55.9 16 10.3 34.9 15.8 53.4 15.8 2 0 3.9-.1 5.9-.2-3.9 75.5-60.4 142.9-116.8 164.5-20.5-26.9-50.4-44-83.9-44h-17.2c-61.5 0-111.6 57.8-111.6 128.8 0 66.3 53.9 120.2 120.2 120.2 43.8 0 82.1-23.6 103.1-58.7.7 65.7 54.3 118.9 120.2 118.9 66.3 0 120.2-53.9 120.2-120.2.1-49.9-24.7-93.2-60.7-114.6zm31.4-228.2c-22.6 23.8-59.8 31.7-86.5 18.4 22.7-23.9 59.9-31.7 86.5-18.4zm-183.3-31.8c15.8-.4 32.1 4.2 45.9 13 14 9 23.8 21.2 28.4 35.1-15.6.5-32.1-4.2-45.9-13-14-9-23.9-21.2-28.4-35.1zm93.9 83c44 70.7 56.8 119.8 42.6 169.5-11.2-4.3-23.1-6.8-35.5-6.8h-17.1c-40 0-75.1 24.5-94.8 61.1-1.2-23-7.5-44.4-17.8-62.6 57-23.4 111.9-86.6 122.6-161.2zm-224.8 334.5c-56.8 0-103.1-46.2-103.1-103.1 0-61.6 42.4-111.7 94.5-111.7h17.2c25.8 0 49.1 12.3 66.2 32.1-6.2 1.3-12.3 2-18.3 2-4.7 0-8.6 3.8-8.6 8.6 0 4.7 3.8 8.6 8.6 8.6 9.5 0 19.3-1.5 29.1-4.2 11 18.2 17.5 40.5 17.5 64.5 0 57-46.2 103.2-103.1 103.2zm223.4 60.1c-56.8 0-103.1-46.2-103.1-103.1 0-61.6 42.4-111.7 94.5-111.7h17.2c10.5 0 20.5 2.1 30 5.9-3.2 8-7.1 16.1-11.7 24.3-2.3 4.1-.8 9.4 3.3 11.7 1.3.7 2.8 1.1 4.2 1.1 3 0 5.9-1.6 7.5-4.4 4.7-8.5 8.5-16.8 11.8-25 29.4 18.9 49.4 55.8 49.4 98.1-.1 56.9-46.3 103.1-103.1 103.1z"/><path d="m213 280.1c-18.9 0-34.4-15.4-34.4-34.4 0-4.7-3.8-8.6-8.6-8.6-4.7 0-8.6 3.8-8.6 8.6 0 28.4 23.1 51.5 51.5 51.5 4.7 0 8.6-3.8 8.6-8.6s-3.8-8.5-8.5-8.5z"/><path d="m419.1 340.2c-18.9 0-34.4-15.4-34.4-34.4 0-4.7-3.8-8.6-8.6-8.6-4.7 0-8.6 3.8-8.6 8.6 0 28.4 23.1 51.5 51.5 51.5 4.7 0 8.6-3.8 8.6-8.6s-3.8-8.5-8.5-8.5z"/></g></svg>