<?xml version="1.0" encoding="utf-8"?>
<!-- Generator: Adobe Illustrator 21.0.0, SVG Export Plug-In . SVG Version: 6.00 Build 0)  -->
<svg version="1.1" id="Capa_1" xmlns="http://www.w3.org/2000/svg" xmlns:xlink="http://www.w3.org/1999/xlink" x="0px" y="0px"
	 viewBox="0 0 59.6 59.6" style="enable-background:new 0 0 59.6 59.6;" xml:space="preserve">
<style type="text/css">
	.st0{fill:#FF0000;}
</style>
<path class="st0" d="M49.7,32.3c2.2-7.3-0.2-14-5.2-21.9c0.7,0.2,1.4,0.3,2.1,0.3l0,0c3.5,0,7-1.7,9.1-4.6l0.6-0.8l-0.8-0.6
	C54,3.6,52.1,3,50.1,3c-2.9,0-5.7,1.2-7.8,3.2C40.6,2.6,36.6,0,32.3,0c-0.5,0-1.1,0-1.6,0.1l-1,0.2l0.2,1c0.7,4.7,5.4,8.4,10.7,8.4
	l0,0c0.2,0,0.5,0,0.7,0c-0.5,8.8-7,16.6-13.6,19.2c-2.4-3.1-5.9-5.1-9.8-5.1h-2c-7.2,0-13,6.7-13,15c0,7.7,6.3,14,14,14
	c5.1,0,9.6-2.8,12-6.8c0.1,7.6,6.3,13.8,14,13.8s14-6.3,14-14C56.8,39.8,53.9,34.8,49.7,32.3z M6.8,36c0.3-1.4,0.8-2.6,1.5-3.8
	c0.3-0.5,0.9-0.6,1.4-0.3c0.5,0.3,0.6,0.9,0.3,1.4c-0.6,1-1,2-1.2,3.1c-0.1,0.5-0.5,0.8-1,0.8c-0.1,0-0.1,0-0.2,0
	C7,37.1,6.6,36.6,6.8,36z M15.7,47.6c-0.1,0.5-0.5,0.8-1,0.8c-0.1,0-0.1,0-0.2,0C11,47.6,8.1,45,7,41.6c-0.2-0.5,0.1-1.1,0.6-1.3
	s1.1,0.1,1.3,0.6c0.9,2.7,3.3,4.8,6.1,5.4C15.5,46.5,15.9,47.1,15.7,47.6z M24.8,34.6c-3.3,0-6-2.7-6-6c0-0.6,0.4-1,1-1s1,0.4,1,1
	c0,2.2,1.8,4,4,4c0.6,0,1,0.4,1,1S25.4,34.6,24.8,34.6z M41.6,54.9c-0.1,0.5-0.5,0.8-1,0.8c-0.1,0-0.1,0-0.2,0
	c-3.6-0.8-6.4-3.4-7.5-6.8c-0.2-0.5,0.1-1.1,0.6-1.3s1.1,0.1,1.3,0.6c0.9,2.7,3.3,4.8,6.1,5.5C41.4,53.9,41.7,54.4,41.6,54.9z
	 M41.8,30.6c-4.7,0-8.7,2.9-11,7.1c-0.1-2.7-0.9-5.2-2.1-7.3c6.7-2.7,13.1-10.1,14.3-18.8c5.1,8.2,6.6,14,5,19.7
	c-1.3-0.5-2.7-0.8-4.1-0.8L41.8,30.6L41.8,30.6z M48.8,41.6c-3.3,0-6-2.7-6-6c0-0.6,0.4-1,1-1s1,0.4,1,1c0,2.2,1.8,4,4,4
	c0.6,0,1,0.4,1,1S49.4,41.6,48.8,41.6z"/>
</svg>
