<?xml version="1.0" encoding="utf-8"?>
<!-- Generator: Adobe Illustrator 21.0.0, SVG Export Plug-In . SVG Version: 6.00 Build 0)  -->
<svg version="1.1" id="Layer_1" xmlns="http://www.w3.org/2000/svg" xmlns:xlink="http://www.w3.org/1999/xlink" x="0px" y="0px"
	 viewBox="0 0 512 512" style="enable-background:new 0 0 512 512;" xml:space="preserve">
<style type="text/css">
	.st0{fill:#FF0000;}
</style>
<path class="st0" d="M485.6,293.6c13.1-22.6,21.9-48,25.1-75.1c0-0.1,0-0.2,0-0.3c0.9-7.5,1.3-15,1.3-22.7
	c0-50.8-19.5-97.1-51.3-131.9c-0.5-0.7-1.1-1.4-1.8-1.9c-20.7-22-46.4-39.3-75.3-49.8c-0.5-0.2-1.1-0.4-1.6-0.6
	C361.5,4,339.4,0,316.5,0c-25.6,0-50.1,5-72.5,14c-0.6,0.2-1.2,0.4-1.8,0.7c-27.6,11.4-52,28.9-71.6,50.8c-0.6,0.6-1.2,1.2-1.7,1.9
	c-29.8,34.3-47.9,79.2-47.9,128.1c0,7.3,0.4,14.6,1.2,21.7c0,0.1,0,0.2,0,0.3c1.5,12.9,4.2,25.5,8,37.6l-105,105
	c-3.9,3.9-3.9,10.2,0,14.1c2,2,4.5,2.9,7.1,2.9s5.1-1,7.1-2.9l98.7-98.7c2.8,6.1,5.8,12.1,9.1,17.8c0.3,0.7,0.7,1.3,1.1,1.9
	c24.8,41.6,64.6,73.3,111.9,87.6l-70.4,70.4c-3.9,3.9-3.9,10.2,0,14.1c2,2,4.5,2.9,7.1,2.9s5.1-1,7.1-2.9l79.2-79.2
	c10.9,1.9,22,2.9,33.4,2.9c71.2,0,133.7-38.3,167.9-95.4C484.8,295.1,485.2,294.4,485.6,293.6z M399.1,294l-35.6-54.8l18.9-58.2
	l45-10.1l11.7-2.6l51.1,52.5c-3.1,21.5-10.1,41.7-20.3,59.9L399.1,294z M269.4,239.3L233.9,294l-71.1-13.6
	c-10.2-18.4-17.2-38.8-20.2-60.4l51.2-51.6l56.7,12.7l12.6,38.8L269.4,239.3z M170.9,97.5l9,56.4l-39,39.3
	C141.4,157.8,152.4,124.9,170.9,97.5z M287.7,230.7L270,176.3l46.2-33.6l46.2,33.6l-17.7,54.4L287.7,230.7L287.7,230.7z M492,194
	l-39.2-40.2l6.9-59.5C479.8,122.5,491.7,156.9,492,194z M442.1,73l-8.9,76.1l-21.5,4.8l-34.8,7.8l-50.2-36.5v-54L381,32.3
	C404.1,41.5,424.9,55.5,442.1,73z M357.1,24.8l-41,29.4l-45.7-28c14.7-4,30.2-6.2,46.2-6.2C330.4,20,344,21.6,357.1,24.8z M246,34.8
	l60.2,36.9v53.7L270.9,151l-14.8,10.8l-56.7-12.7l-11.6-72.8C204,58.8,223.8,44.5,246,34.8z M178.3,303.7l54,10.4l27.5,47.6
	C227.2,350.5,199,330.2,178.3,303.7z M286.8,368.6l-36.4-63.2l35.5-54.7h61.2l35.5,54.7l-36.4,63.2c-9.7,1.7-19.6,2.5-29.7,2.5
	C306.3,371.1,296.4,370.2,286.8,368.6z M373.2,361.7l27.5-47.6l53.8-10.1C433.7,330.3,405.6,350.6,373.2,361.7z"/>
<path class="st0" d="M137.7,360.1L2.9,494.9c-3.9,3.9-3.9,10.2,0,14.1c2,1.9,4.5,2.9,7.1,2.9s5.1-1,7.1-2.9l134.8-134.8
	c3.9-3.9,3.9-10.2,0-14.1C148,356.2,141.6,356.2,137.7,360.1z"/>
<path class="st0" d="M166.1,481c-2.6,0-5.2,1.1-7.1,2.9s-2.9,4.4-2.9,7.1c0,2.6,1.1,5.2,2.9,7.1c1.9,1.9,4.4,2.9,7.1,2.9
	c2.6,0,5.2-1.1,7.1-2.9c1.9-1.9,2.9-4.4,2.9-7.1c0-2.6-1.1-5.2-2.9-7.1C171.4,482.1,168.8,481,166.1,481z"/>
<polygon class="st0" points="133.5,212.9 191.4,161.8 179.9,76.8 154.8,108.5 "/>
<path class="st0" d="M263.6,174l20.8,69.9l61.2-1.9l27.6-63.5c0,0-30.7-32.3-32.2-33.1s-26.5-11.8-26.5-11.8l-42.3,28.2L263.6,174z"
	/>
<polygon class="st0" points="259.7,20 278.7,47.4 318.4,66.6 363.5,20 280.4,9.9 "/>
<polygon class="st0" points="397.2,307 363.5,371.1 400,361.7 465.2,307 454.4,294 "/>
<polygon class="st0" points="442.1,145.4 492,212.9 502.6,198.2 485,123.3 460.1,76.8 "/>
<path class="st0" d="M166.1,297.9c3.1,0.6,67.7,1.7,69.4,2.8c1.7,1.1,34.4,67.5,34.4,67.5l-19.7,2.8l-62.6-40.3L166.1,294V297.9z"/>
</svg>
