<svg enable-background="new 0 0 512 512" viewBox="0 0 512 512" xmlns="http://www.w3.org/2000/svg"><g fill="#666"><path d="m485.9 293.4c13.1-22.5 21.9-47.9 25.1-74.9 0-.1 0-.2 0-.3.9-7.4 1.3-15 1.3-22.7 0-50.7-19.5-96.9-51.3-131.7-.5-.7-1.1-1.4-1.8-1.9-20.7-22-46.4-39.2-75.3-49.7-.5-.2-1.1-.4-1.6-.6-20.5-7.3-42.5-11.3-65.5-11.3-25.6 0-50.1 5-72.5 13.9-.6.2-1.2.4-1.8.7-27.6 11.4-52 28.8-71.6 50.7-.6.6-1.2 1.2-1.7 1.9-29.8 34.3-47.9 79-47.9 127.9 0 7.3.4 14.6 1.2 21.7v.3c1.5 12.9 4.2 25.5 8 37.5l-105 104.8c-3.9 3.9-3.9 10.2 0 14.1 2 1.9 4.5 2.9 7.1 2.9s5.1-1 7.1-2.9l98.7-98.5c2.8 6.1 5.8 12 9.1 17.8.3.7.7 1.3 1.1 1.9 24.8 41.5 64.6 73.2 111.9 87.4l-70.4 70.3c-3.9 3.9-3.9 10.2 0 14.1 2 1.9 4.5 2.9 7.1 2.9s5.1-1 7.1-2.9l79.2-79c10.9 1.9 22 2.9 33.4 2.9 71.2 0 133.7-38.2 167.9-95.2.3-.6.8-1.3 1.1-2.1zm-86.5.4-35.6-54.6 18.9-58.1 45-10.1 11.7-2.6 51.1 52.4c-3.1 21.4-10.1 41.6-20.3 59.8zm-129.6-54.6-35.6 54.6-71.1-13.6c-10.2-18.3-17.2-38.7-20.2-60.3l51.2-51.5 56.7 12.7 12.6 38.7zm-98.6-141.5 9 56.3-39 39.2c.5-35.3 11.5-68.1 30-95.5zm116.8 133-17.7-54.3 46.2-33.5 46.2 33.5-17.7 54.3zm204.3-36.7-39.2-40.2 6.9-59.4c20.1 28.2 32 62.6 32.3 99.6zm-49.9-120.7-8.9 75.9-21.5 4.8-34.8 7.8-50.2-36.3v-54l54.3-38.8c23.1 9.1 43.9 23.1 61.1 40.6zm-85-48.2-41 29.3-45.7-27.9c14.7-4 30.2-6.2 46.2-6.2 13.9.1 27.4 1.7 40.5 4.8zm-111 10 60.2 36.8v53.6l-35.4 25.7-14.8 10.7-56.7-12.7-11.6-72.6c16.3-17.6 36.1-31.7 58.3-41.5zm-67.8 268.4 54 10.3 27.5 47.5c-32.5-11-60.7-31.4-81.5-57.8zm108.5 64.7-36.4-63.1 35.5-54.6h61.2l35.5 54.6-36.4 63c-9.7 1.6-19.6 2.5-29.7 2.5-10.1.2-20-.7-29.7-2.4zm86.4-6.8 27.5-47.5 53.8-10.1c-20.8 26.3-48.9 46.5-81.3 57.6z"/><path d="m138 359.8-134.7 134.6c-3.9 3.9-3.9 10.2 0 14.1 2 1.9 4.5 2.9 7.1 2.9s5.1-1 7.1-2.9l134.8-134.5c3.9-3.9 3.9-10.2 0-14.1-4-4-10.3-4-14.3-.1z"/><path d="m166.5 480.5c-2.6 0-5.2 1.1-7.1 2.9-1.9 1.9-2.9 4.4-2.9 7.1 0 2.6 1.1 5.2 2.9 7 1.9 1.9 4.4 2.9 7.1 2.9 2.6 0 5.2-1.1 7.1-2.9 1.9-1.9 2.9-4.4 2.9-7s-1.1-5.2-2.9-7.1c-1.9-1.9-4.5-2.9-7.1-2.9z"/></g></svg>